<?xml version="1.0" encoding="UTF-8"?>
<svg version="1.1" viewBox="0 0 1292 1292" width="323" height="323" xmlns="http://www.w3.org/2000/svg">
<path transform="translate(0)" d="m0 0h1292v1292h-1292z" fill="#9DC936"/>
<path transform="translate(631,25)" d="m0 0h31l37 2 35 4 30 5 31 7 30 8 41 14 29 12 28 13 30 16 25 15 27 18 19 14 16 13 11 9 10 9 8 7 16 15 12 12 7 8 12 13 9 11 13 16 14 19 11 16 11 17 12 20 13 24 15 30 12 29 11 30 12 41 7 30 6 34 4 33 2 27v65l-3 36-5 36-8 38-8 31-9 28-2 2h-415l-1-231v-325l-2-10-7-5h-337l-6 6-1 4-1 560-2 1h-396l-7-1-4-9-7-22-11-44-6-34-3-21-3-36-1-23v-20l1-29 3-36 5-35 8-39 9-33 12-36 12-31 13-28 10-20 10-18 16-26 8-12 13-19 11-14 13-16 9-11 14-15 11-12 18-18 8-7 11-10 11-9 15-12 12-9 17-12 15-10 19-12 21-12 27-14 28-13 28-11 36-12 37-10 29-6 33-5 28-3z" fill="#010101"/>
<path transform="translate(220,1099)" d="m0 0h854l-6 7-11 10-11 9-17 14-13 10-20 14-17 11-25 15-14 8-16 8-27 13-32 13-35 12-28 8-36 8-30 5-34 4-25 2-37 1-38-2-32-3-39-6-33-7-29-8-36-12-21-8-21-9-25-12-16-8-19-11-26-16-12-8-17-12-18-14-13-11-11-9-11-10-4-4z" fill="#010101"/>
<path transform="translate(497,305)" d="m0 0h288l5 3 3 6v222l-4 6-6 5-7-1-8-6-1-1-1-189-19 19-4 5-6 5-7 8-19 19h-2l-2 4-21 21-8 7-7 8-76 76-8 7-62 62-7 8-3 3-2 6 254 1v-29l6-7 4-2 9 1 6 7 1 3v43l-3 6-5 4h-289l-5-5-3-5v-309l3-7 3-3z" fill="#010101"/>
<path transform="translate(640,660)" d="m0 0h155l5 2 5 6v10l-5 6-8 3h-11v77l-1 14-6 8-5 2-7-1-14-12-5-6-4 2-14 14-5 3h-6l-6-4-7-6-5-6-4-3-4 1-6 7-8 7-6 4-6-1-8-6-1-1-1-91 1-2h-11l-8-2-6-7-1-2v-7l6-7z" fill="#010101"/>
<path transform="translate(747,330)" d="m0 0 2 1-39 39-7 6-5 6-8 7-8 9-8 7-11 12-41 41h-2l-2 4-103 103h-2v-63l7-8 163-163z" fill="#9DC936"/>
<path transform="translate(498,660)" d="m0 0h109l6 5 2 5 1 126-2 9-6 7-11 1h-91l-10-1-5-4-3-8v-41l6-8 3-2h8l5 5 4 7v26h75v-101l-57 1h-19l1 9v14l-3 8-6 6h-7l-6-4-3-6-1-5v-39l4-6z" fill="#010101"/>
<path transform="translate(645,330)" d="m0 0h2l-1 3-8 7-123 123h-2v-132z" fill="#9DC936"/>
<path transform="translate(684,686)" d="m0 0h65l6 1v56h-2v-2l-5-2-4-2-8 1-10 9-8 9-4-2-14-14-7-3-7 1-8 5v-56z" fill="#9DC936"/>
<path transform="translate(999,929)" d="m0 0h25l13 2 10 5 6 8 3 9v10l-4 10-6 7-7 5 4 7 10 12 8 11 6 8v1h-16l-4-4-10-14-12-16-12-1 1 28 1 6-2 1h-13l-1-82-1-12z" fill="#010101"/>
<path transform="translate(650,928)" d="m0 0h2l1 3 1 92-1 1h-12l-1-53v-11l-6 11-12 18-12 19-3 4-4-2-11-16-11-14-10-14-2-4v61l-1 1h-12l-1-94 1-1 8 1 8 10 13 19 10 14 11 16 3-3 12-19 13-21 8-11 5-6z" fill="#010101"/>
<path transform="translate(342,938)" d="m0 0h8l11 4 7 7 6 12 1 5v23l-4 11-7 9-7 5-3 1h-14l-8-4-7-8-5-11-1-4v-22l4-12 7-9 6-5z" fill="#9DC936"/>
<path transform="translate(826,938)" d="m0 0 11 1 8 4 8 9 5 14 1 7v9l-3 12-5 10-4 5-8 5-3 1h-12l-10-5-7-9-4-9-2-11v-9l2-10 4-9 4-6 6-6z" fill="#9DC936"/>
<path transform="translate(826,927)" d="m0 0h9l12 3 8 4 6 5 7 11 4 13 1 6v12l-4 16-4 8-8 10-8 6-8 4-4 1h-15l-12-4-9-7-6-7-5-11-2-9v-20l4-13 5-10 7-8 10-6 7-3zm0 11-10 4-7 7-5 10-2 6-1 7v9l3 14 5 9 5 6 10 5h12l8-4 5-5 4-5 5-13 1-6v-9l-2-10-4-11-9-10-7-3z" fill="#010101"/>
<path transform="translate(344,927)" d="m0 0h9l11 3 8 4 5 4 7 10 4 11 2 15-1 14-4 12-8 12-9 8-10 5-3 1h-17l-12-5-6-4-8-9-6-15-1-6v-19l4-14 6-10 6-7 11-7zm-2 11-9 4-8 9-4 8-2 7v22l4 11 6 9 6 5 5 2h14l9-5 6-7 5-10 1-4v-23l-3-10-6-9-7-6-9-3z" fill="#010101"/>
<path transform="translate(894,929)" d="m0 0h13l1 1v59l1 9 5 9 6 5 6 2h13l7-4 6-7 3-7v-66l12-1 2 1-1 65-4 12-7 9-10 7-9 3h-15l-11-4-6-4-6-7-4-9-1-5-1-52-2-14z" fill="#010101"/>
<path transform="translate(484,929)" d="m0 0h48v12h-20l-14-1v30h30l-1 9-1 1h-28v32l35 1v8l-3 3h-45l-1-69-1-25z" fill="#010101"/>
<path transform="translate(401,929)" d="m0 0h67v12h-31l1 82-1 1h-13v-83h-30l-1-1 1-10z" fill="#010101"/>
<path transform="translate(228,929)" d="m0 0h72l1 1v10l-1 1-30 1v73l1 8-1 1h-13l-1-4v-79h-29l-1-1v-9z" fill="#010101"/>
<path transform="translate(733,929)" d="m0 0h15l36 1v10l-1 1-30 1v31l1 50-1 1h-13v-83h-31v-11z" fill="#010101"/>
<path transform="translate(522,838)" d="m0 0h58l5 2 6 10v2h-79l1-5 7-8z" fill="#010101"/>
<path transform="translate(1014,940)" d="m0 0h9l11 3 5 4 3 6v11l-5 8-5 4-9 2h-10l-1-9v-23z" fill="#9DC936"/>
</svg>
